<svg width="34" height="27" viewBox="0 0 34 27" fill="none" xmlns="http://www.w3.org/2000/svg">
<g clip-path="url(#clip0_27_2)">
<path d="M14.625 25.75C15.5422 25.75 16.2857 24.9945 16.2857 24.0625C16.2857 23.1305 15.5422 22.375 14.625 22.375C13.7078 22.375 12.9643 23.1305 12.9643 24.0625C12.9643 24.9945 13.7078 25.75 14.625 25.75Z" fill="white" stroke="white"/>
<path d="M25.6964 25.75C26.6136 25.75 27.3571 24.9945 27.3571 24.0625C27.3571 23.1305 26.6136 22.375 25.6964 22.375C24.7792 22.375 24.0357 23.1305 24.0357 24.0625C24.0357 24.9945 24.7792 25.75 25.6964 25.75Z" fill="white" stroke="white"/>
<path d="M13.3586 19.1251L27.3571 19.125L32.8929 7.875H30.5236L26.0396 16.8751H14.8132L9.08929 3.37506L7.98215 3.375L1 3.375V5.43164L7.61022 5.4317L13.3586 19.1251Z" fill="white" stroke="white"/>
<path d="M20.5057 12.2557C19.5284 12.2519 18.6875 12.0114 17.983 11.5341C17.2822 11.0568 16.7424 10.3655 16.3636 9.46023C15.9886 8.55492 15.803 7.46591 15.8068 6.19318C15.8068 4.92424 15.9943 3.8428 16.3693 2.94886C16.7481 2.05492 17.2879 1.375 17.9886 0.909091C18.6932 0.439394 19.5322 0.204545 20.5057 0.204545C21.4792 0.204545 22.3163 0.439394 23.017 0.909091C23.7216 1.37879 24.2633 2.06061 24.642 2.95455C25.0208 3.8447 25.2083 4.92424 25.2045 6.19318C25.2045 7.4697 25.0152 8.56061 24.6364 9.46591C24.2614 10.3712 23.7235 11.0625 23.0227 11.5398C22.322 12.017 21.483 12.2557 20.5057 12.2557ZM20.5057 10.2159C21.1723 10.2159 21.7045 9.88068 22.1023 9.21023C22.5 8.53977 22.697 7.53409 22.6932 6.19318C22.6932 5.31061 22.6023 4.57576 22.4205 3.98864C22.2424 3.40151 21.9886 2.96023 21.6591 2.66477C21.3333 2.36932 20.9489 2.22159 20.5057 2.22159C19.8428 2.22159 19.3125 2.55303 18.9148 3.21591C18.517 3.87879 18.3163 4.87121 18.3125 6.19318C18.3125 7.08712 18.4015 7.83333 18.5795 8.43182C18.7614 9.02652 19.017 9.47348 19.3466 9.77273C19.6761 10.0682 20.0625 10.2159 20.5057 10.2159Z" fill="#F08811"/>
</g>
<defs>
<clipPath id="clip0_27_2">
<rect width="34" height="27" fill="white"/>
</clipPath>
</defs>
</svg>
