<svg width="24" height="24" viewBox="0 0 24 24" fill="none" xmlns="http://www.w3.org/2000/svg">
<path d="M2 12C2 17.523 6.477 22 12 22C17.523 22 22 17.523 22 12C22 6.477 17.523 2 12 2C6.477 2 2 6.477 2 12Z" stroke="white" stroke-width="1.5" stroke-linecap="round" stroke-linejoin="round"/>
<path d="M12.9999 2.05005C12.9999 2.05005 15.9999 6.00005 15.9999 12C15.9999 18 12.9999 21.9501 12.9999 21.9501M10.9999 21.9501C10.9999 21.9501 7.99988 18 7.99988 12C7.99988 6.00005 10.9999 2.05005 10.9999 2.05005M2.62988 15.5H21.3699M2.62988 8.50005H21.3699" stroke="white" stroke-width="1.5" stroke-linecap="round" stroke-linejoin="round"/>
</svg>
