<svg width="36" height="26" viewBox="0 0 36 26" fill="none" xmlns="http://www.w3.org/2000/svg">
<g clip-path="url(#clip0_26_2)">
<path d="M1.3113e-06 22C1.3113e-06 23.0609 -0.750145 24.2499 8.04663e-07 25C8.04663e-07 25 -1.06087 26 -1.07288e-06 26H36C37.0609 26 36 25 36 25C36.7501 24.2499 36 23.0609 36 22V17H1.3113e-06V22Z" fill="#138808"/>
<path d="M36 8.99992V3.99992C36 2.93906 36 1.99676e-05 36 1.99676e-05L5.60284e-06 0C-1.06086 0 -0.832805 2 7.27177e-06 2C-0.750138 2.75015 7.98702e-06 2.93906 7.98702e-06 3.99992V8.99992H36Z" fill="#FF9933"/>
<path d="M0 8.66699H36V17.334H0V8.66699Z" fill="#F7F7F7"/>
<path d="M18 17C20.2091 17 22 15.2091 22 13C22 10.7909 20.2091 9 18 9C15.7909 9 14 10.7909 14 13C14 15.2091 15.7909 17 18 17Z" fill="#000080"/>
<path d="M18 16.375C19.864 16.375 21.375 14.864 21.375 13C21.375 11.136 19.864 9.625 18 9.625C16.136 9.625 14.625 11.136 14.625 13C14.625 14.864 16.136 16.375 18 16.375Z" fill="#F7F7F7"/>
<path d="M18.1 11.75L18 12.4L17.9 11.75L18 9.80005L18.1 11.75ZM17.172 9.90905L17.58 11.818L17.845 12.42L17.773 11.767L17.172 9.90905ZM16.4 10.229L17.288 11.967L17.7 12.48L17.462 11.867L16.4 10.229ZM15.737 10.737L17.045 12.187L17.576 12.576L17.187 12.045L15.737 10.737ZM15.229 11.4L16.867 12.462L17.48 12.7L16.967 12.288L15.229 11.4ZM14.909 12.172L16.767 12.773L17.42 12.845L16.818 12.58L14.909 12.172ZM14.8 13L16.75 13.1L17.4 13L16.75 12.9L14.8 13ZM14.909 13.828L16.818 13.42L17.42 13.155L16.767 13.227L14.909 13.828ZM15.229 14.6L16.967 13.712L17.48 13.3L16.867 13.538L15.229 14.6ZM15.737 15.263L17.187 13.955L17.576 13.424L17.045 13.813L15.737 15.263ZM16.4 15.771L17.462 14.133L17.7 13.52L17.288 14.033L16.4 15.771ZM17.172 16.091L17.773 14.233L17.845 13.58L17.58 14.182L17.172 16.091ZM18 16.2L18.1 14.25L18 13.6L17.9 14.25L18 16.2ZM18.828 16.091L18.42 14.182L18.155 13.58L18.227 14.233L18.828 16.091ZM19.6 15.771L18.712 14.033L18.3 13.52L18.538 14.133L19.6 15.771ZM20.263 15.263L18.955 13.813L18.424 13.424L18.813 13.955L20.263 15.263ZM20.771 14.6L19.133 13.538L18.52 13.3L19.033 13.712L20.771 14.6ZM21.091 13.828L19.233 13.227L18.58 13.155L19.182 13.42L21.091 13.828ZM21.2 13L19.25 12.9L18.6 13L19.25 13.1L21.2 13ZM21.091 12.172L19.182 12.58L18.58 12.845L19.233 12.773L21.091 12.172ZM20.771 11.4L19.033 12.288L18.52 12.7L19.133 12.462L20.771 11.4ZM20.263 10.737L18.813 12.045L18.424 12.576L18.955 12.187L20.263 10.737ZM19.6 10.229L18.538 11.867L18.3 12.48L18.712 11.967L19.6 10.229ZM18.828 9.90905L18.227 11.767L18.155 12.42L18.42 11.818L18.828 9.90905Z" fill="#6666B3"/>
<path d="M17.56 9.85898C17.6704 9.85898 17.76 9.76944 17.76 9.65899C17.76 9.54853 17.6704 9.45898 17.56 9.45898C17.4495 9.45898 17.36 9.54853 17.36 9.65899C17.36 9.76944 17.4495 9.85898 17.56 9.85898Z" fill="#000080"/>
<path d="M16.71 10.087C16.8204 10.087 16.91 9.99747 16.91 9.88701C16.91 9.77655 16.8204 9.68701 16.71 9.68701C16.5995 9.68701 16.51 9.77655 16.51 9.88701C16.51 9.99747 16.5995 10.087 16.71 10.087Z" fill="#000080"/>
<path d="M15.948 10.526C16.0584 10.526 16.148 10.4364 16.148 10.326C16.148 10.2155 16.0584 10.126 15.948 10.126C15.8375 10.126 15.748 10.2155 15.748 10.326C15.748 10.4364 15.8375 10.526 15.948 10.526Z" fill="#000080"/>
<path d="M15.326 11.148C15.4364 11.148 15.526 11.0585 15.526 10.948C15.526 10.8376 15.4364 10.748 15.326 10.748C15.2155 10.748 15.126 10.8376 15.126 10.948C15.126 11.0585 15.2155 11.148 15.326 11.148Z" fill="#000080"/>
<path d="M14.887 11.91C14.9974 11.91 15.087 11.8205 15.087 11.71C15.087 11.5996 14.9974 11.51 14.887 11.51C14.7765 11.51 14.687 11.5996 14.687 11.71C14.687 11.8205 14.7765 11.91 14.887 11.91Z" fill="#000080"/>
<path d="M14.659 12.7599C14.7694 12.7599 14.859 12.6703 14.859 12.5599C14.859 12.4494 14.7694 12.3599 14.659 12.3599C14.5485 12.3599 14.459 12.4494 14.459 12.5599C14.459 12.6703 14.5485 12.7599 14.659 12.7599Z" fill="#000080"/>
<path d="M14.659 13.64C14.7694 13.64 14.859 13.5504 14.859 13.44C14.859 13.3295 14.7694 13.24 14.659 13.24C14.5485 13.24 14.459 13.3295 14.459 13.44C14.459 13.5504 14.5485 13.64 14.659 13.64Z" fill="#000080"/>
<path d="M14.887 14.4901C14.9974 14.4901 15.087 14.4005 15.087 14.2901C15.087 14.1796 14.9974 14.0901 14.887 14.0901C14.7765 14.0901 14.687 14.1796 14.687 14.2901C14.687 14.4005 14.7765 14.4901 14.887 14.4901Z" fill="#000080"/>
<path d="M15.326 15.2521C15.4364 15.2521 15.526 15.1625 15.526 15.0521C15.526 14.9416 15.4364 14.8521 15.326 14.8521C15.2155 14.8521 15.126 14.9416 15.126 15.0521C15.126 15.1625 15.2155 15.2521 15.326 15.2521Z" fill="#000080"/>
<path d="M15.948 15.8739C16.0584 15.8739 16.148 15.7843 16.148 15.6739C16.148 15.5634 16.0584 15.4739 15.948 15.4739C15.8375 15.4739 15.748 15.5634 15.748 15.6739C15.748 15.7843 15.8375 15.8739 15.948 15.8739Z" fill="#000080"/>
<path d="M16.71 16.3131C16.8204 16.3131 16.91 16.2235 16.91 16.1131C16.91 16.0026 16.8204 15.9131 16.71 15.9131C16.5995 15.9131 16.51 16.0026 16.51 16.1131C16.51 16.2235 16.5995 16.3131 16.71 16.3131Z" fill="#000080"/>
<path d="M17.56 16.5409C17.6704 16.5409 17.76 16.4513 17.76 16.3409C17.76 16.2304 17.6704 16.1409 17.56 16.1409C17.4495 16.1409 17.36 16.2304 17.36 16.3409C17.36 16.4513 17.4495 16.5409 17.56 16.5409Z" fill="#000080"/>
<path d="M18.44 16.5409C18.5504 16.5409 18.64 16.4513 18.64 16.3409C18.64 16.2304 18.5504 16.1409 18.44 16.1409C18.3295 16.1409 18.24 16.2304 18.24 16.3409C18.24 16.4513 18.3295 16.5409 18.44 16.5409Z" fill="#000080"/>
<path d="M19.29 16.3131C19.4005 16.3131 19.49 16.2235 19.49 16.1131C19.49 16.0026 19.4005 15.9131 19.29 15.9131C19.1795 15.9131 19.09 16.0026 19.09 16.1131C19.09 16.2235 19.1795 16.3131 19.29 16.3131Z" fill="#000080"/>
<path d="M20.052 15.8739C20.1624 15.8739 20.252 15.7843 20.252 15.6739C20.252 15.5634 20.1624 15.4739 20.052 15.4739C19.9415 15.4739 19.852 15.5634 19.852 15.6739C19.852 15.7843 19.9415 15.8739 20.052 15.8739Z" fill="#000080"/>
<path d="M20.674 15.2521C20.7845 15.2521 20.874 15.1625 20.874 15.0521C20.874 14.9416 20.7845 14.8521 20.674 14.8521C20.5635 14.8521 20.474 14.9416 20.474 15.0521C20.474 15.1625 20.5635 15.2521 20.674 15.2521Z" fill="#000080"/>
<path d="M21.113 14.4901C21.2235 14.4901 21.313 14.4005 21.313 14.2901C21.313 14.1796 21.2235 14.0901 21.113 14.0901C21.0025 14.0901 20.913 14.1796 20.913 14.2901C20.913 14.4005 21.0025 14.4901 21.113 14.4901Z" fill="#000080"/>
<path d="M21.341 13.64C21.4514 13.64 21.541 13.5504 21.541 13.44C21.541 13.3295 21.4514 13.24 21.341 13.24C21.2305 13.24 21.141 13.3295 21.141 13.44C21.141 13.5504 21.2305 13.64 21.341 13.64Z" fill="#000080"/>
<path d="M21.341 12.7599C21.4514 12.7599 21.541 12.6703 21.541 12.5599C21.541 12.4494 21.4514 12.3599 21.341 12.3599C21.2305 12.3599 21.141 12.4494 21.141 12.5599C21.141 12.6703 21.2305 12.7599 21.341 12.7599Z" fill="#000080"/>
<path d="M21.113 11.91C21.2235 11.91 21.313 11.8205 21.313 11.71C21.313 11.5996 21.2235 11.51 21.113 11.51C21.0025 11.51 20.913 11.5996 20.913 11.71C20.913 11.8205 21.0025 11.91 21.113 11.91Z" fill="#000080"/>
<path d="M20.674 11.148C20.7845 11.148 20.874 11.0585 20.874 10.948C20.874 10.8376 20.7845 10.748 20.674 10.748C20.5635 10.748 20.474 10.8376 20.474 10.948C20.474 11.0585 20.5635 11.148 20.674 11.148Z" fill="#000080"/>
<path d="M20.052 10.526C20.1624 10.526 20.252 10.4364 20.252 10.326C20.252 10.2155 20.1624 10.126 20.052 10.126C19.9415 10.126 19.852 10.2155 19.852 10.326C19.852 10.4364 19.9415 10.526 20.052 10.526Z" fill="#000080"/>
<path d="M19.29 10.087C19.4005 10.087 19.49 9.99747 19.49 9.88701C19.49 9.77655 19.4005 9.68701 19.29 9.68701C19.1795 9.68701 19.09 9.77655 19.09 9.88701C19.09 9.99747 19.1795 10.087 19.29 10.087Z" fill="#000080"/>
<path d="M18.44 9.85898C18.5504 9.85898 18.64 9.76944 18.64 9.65899C18.64 9.54853 18.5504 9.45898 18.44 9.45898C18.3295 9.45898 18.24 9.54853 18.24 9.65899C18.24 9.76944 18.3295 9.85898 18.44 9.85898Z" fill="#000080"/>
<path d="M18 13.9001C18.497 13.9001 18.9 13.4972 18.9 13.0001C18.9 12.503 18.497 12.1001 18 12.1001C17.5029 12.1001 17.1 12.503 17.1 13.0001C17.1 13.4972 17.5029 13.9001 18 13.9001Z" fill="#000080"/>
</g>
<defs>
<clipPath id="clip0_26_2">
<rect width="36" height="26" fill="white"/>
</clipPath>
</defs>
</svg>
